<svg xmlns="http://www.w3.org/2000/svg" viewBox="0 0 470.78 455.46"><title>linkedin</title><g id="Layer_2" data-name="Layer 2"><path d="M185,96.73A75.83,75.83,0,1,1,109.15,20.9,75.83,75.83,0,0,1,185,96.73ZM109.17,45.45a51.07,51.07,0,1,0,51.06,51.07A51.06,51.06,0,0,0,109.17,45.45Z" transform="translate(-33.33 -20.9)"/><path d="M156.08,451.14H60.71V210.86h95.37Zm24.44-264.75H35.72v290h144.8Z" transform="translate(-33.33 -20.9)"/><path d="M306.6,210.86l.26,22.58,21.19-19s17.16-15.64,59.54-17.43c79.65-1.79,92,102.44,92,102.44V451.14H387V312.9s1.57-49.2-41.06-47.52C306.46,266.94,306,305.27,306,305.27V451.14H225.64V210.86ZM200.68,186.39l.37,290H330.64v-169s1.49-16.8,16.06-16.8S362,312.25,362,312.25l.91,163.57,141.16.54V311.77s4.13-113.51-91.57-137.35c-38.15-8.27-79.8,7-86.47,12.08C319,186.18,200.68,186.39,200.68,186.39Z" transform="translate(-33.33 -20.9)"/></g></svg>